<?xml version="1.0" encoding="UTF-8"?>
<!DOCTYPE svg PUBLIC "-//W3C//DTD SVG 1.1//EN" "http://www.w3.org/Graphics/SVG/1.1/DTD/svg11.dtd">
<svg version="1.2" width="215.9mm" height="279.4mm" viewBox="0 0 21590 27940" preserveAspectRatio="xMidYMid" fill-rule="evenodd" clip-path="url(#presentation_clip_path)" stroke-width="28.222" stroke-linejoin="round" xmlns="http://www.w3.org/2000/svg" xmlns:ooo="http://xml.openoffice.org/svg/export" xmlns:xlink="http://www.w3.org/1999/xlink" xml:space="preserve">
 <defs class="ClipPathGroup">
  <clipPath id="presentation_clip_path" clipPathUnits="userSpaceOnUse">
   <rect x="0" y="0" width="21590" height="27940"/>
  </clipPath>
 </defs>
 <defs class="TextShapeIndex">
  <g ooo:slide="id1" ooo:id-list="id3 id4 id5 id6 id7 id8 id9 id10 id11 id12 id13 id14 id15 id16 id17 id18 id19 id20 id21 id22 id23 id24 id25 id26 id27 id28 id29 id30 id31 id32 id33 id34 id35 id36"/>
 </defs>
 <defs class="EmbeddedBulletChars">
  <g id="bullet-char-template(57356)" transform="scale(0.00048828125,-0.00048828125)">
   <path d="M 580,1141 L 1163,571 580,0 -4,571 580,1141 Z"/>
  </g>
  <g id="bullet-char-template(57354)" transform="scale(0.00048828125,-0.00048828125)">
   <path d="M 8,1128 L 1137,1128 1137,0 8,0 8,1128 Z"/>
  </g>
  <g id="bullet-char-template(10146)" transform="scale(0.00048828125,-0.00048828125)">
   <path d="M 174,0 L 602,739 174,1481 1456,739 174,0 Z M 1358,739 L 309,1346 659,739 1358,739 Z"/>
  </g>
  <g id="bullet-char-template(10132)" transform="scale(0.00048828125,-0.00048828125)">
   <path d="M 2015,739 L 1276,0 717,0 1260,543 174,543 174,936 1260,936 717,1481 1274,1481 2015,739 Z"/>
  </g>
  <g id="bullet-char-template(10007)" transform="scale(0.00048828125,-0.00048828125)">
   <path d="M 0,-2 C -7,14 -16,27 -25,37 L 356,567 C 262,823 215,952 215,954 215,979 228,992 255,992 264,992 276,990 289,987 310,991 331,999 354,1012 L 381,999 492,748 772,1049 836,1024 860,1049 C 881,1039 901,1025 922,1006 886,937 835,863 770,784 769,783 710,716 594,584 L 774,223 C 774,196 753,168 711,139 L 727,119 C 717,90 699,76 672,76 641,76 570,178 457,381 L 164,-76 C 142,-110 111,-127 72,-127 30,-127 9,-110 8,-76 1,-67 -2,-52 -2,-32 -2,-23 -1,-13 0,-2 Z"/>
  </g>
  <g id="bullet-char-template(10004)" transform="scale(0.00048828125,-0.00048828125)">
   <path d="M 285,-33 C 182,-33 111,30 74,156 52,228 41,333 41,471 41,549 55,616 82,672 116,743 169,778 240,778 293,778 328,747 346,684 L 369,508 C 377,444 397,411 428,410 L 1163,1116 C 1174,1127 1196,1133 1229,1133 1271,1133 1292,1118 1292,1087 L 1292,965 C 1292,929 1282,901 1262,881 L 442,47 C 390,-6 338,-33 285,-33 Z"/>
  </g>
  <g id="bullet-char-template(9679)" transform="scale(0.00048828125,-0.00048828125)">
   <path d="M 813,0 C 632,0 489,54 383,161 276,268 223,411 223,592 223,773 276,916 383,1023 489,1130 632,1184 813,1184 992,1184 1136,1130 1245,1023 1353,916 1407,772 1407,592 1407,412 1353,268 1245,161 1136,54 992,0 813,0 Z"/>
  </g>
  <g id="bullet-char-template(8226)" transform="scale(0.00048828125,-0.00048828125)">
   <path d="M 346,457 C 273,457 209,483 155,535 101,586 74,649 74,723 74,796 101,859 155,911 209,963 273,989 346,989 419,989 480,963 531,910 582,859 608,796 608,723 608,648 583,586 532,535 482,483 420,457 346,457 Z"/>
  </g>
  <g id="bullet-char-template(8211)" transform="scale(0.00048828125,-0.00048828125)">
   <path d="M -4,459 L 1135,459 1135,606 -4,606 -4,459 Z"/>
  </g>
 </defs>
 <defs class="TextEmbeddedBitmaps"/>
 <g>
  <g id="id2" class="Master_Slide">
   <g id="bg-id2" class="Background"/>
   <g id="bo-id2" class="BackgroundObjects"/>
  </g>
 </g>
 <g class="SlideGroup">
  <g>
   <g id="id1" class="Slide" clip-path="url(#presentation_clip_path)">
    <g class="Page">
     <g class="com.sun.star.drawing.CustomShape">
      <g id="id3">
       <path fill="rgb(114,159,207)" stroke="none" d="M 3745,4966 L 8112,4966 8112,6530 3745,6530 3745,4966 3745,4966 Z M 3745,4966 L 3745,4966 Z M 8112,6530 L 8112,6530 Z"/>
       <path fill="none" stroke="rgb(52,101,175)" d="M 3745,4966 L 8112,4966 8112,6530 3745,6530 3745,4966 3745,4966 Z"/>
       <path fill="none" stroke="rgb(52,101,175)" d="M 3745,4966 L 3745,4966 Z"/>
       <path fill="none" stroke="rgb(52,101,175)" d="M 8112,6530 L 8112,6530 Z"/>
       <text class="TextShape"><tspan class="TextParagraph" font-family="Liberation Sans, sans-serif" font-size="353px" font-weight="400"><tspan class="TextPosition" x="3917" y="5871"><tspan fill="rgb(0,0,0)" stroke="none">Read data into the  buffer.</tspan></tspan></tspan></text>
      </g>
     </g>
     <g class="com.sun.star.drawing.CustomShape">
      <g id="id4">
       <path fill="rgb(114,159,207)" stroke="none" d="M 3517,9247 L 5867,7588 8217,9247 5867,10907 3517,9247 3517,9247 Z M 3517,7588 L 3517,7588 Z M 8217,10907 L 8217,10907 Z"/>
       <path fill="none" stroke="rgb(52,101,175)" d="M 3517,9247 L 5867,7588 8217,9247 5867,10907 3517,9247 3517,9247 Z"/>
       <path fill="none" stroke="rgb(52,101,175)" d="M 3517,7588 L 3517,7588 Z"/>
       <path fill="none" stroke="rgb(52,101,175)" d="M 8217,10907 L 8217,10907 Z"/>
       <text class="TextShape"><tspan class="TextParagraph" font-family="Liberation Sans, sans-serif" font-size="353px" font-weight="400"><tspan class="TextPosition" x="4226" y="9171"><tspan fill="rgb(0,0,0)" stroke="none">Do we have 4 bytes?</tspan></tspan></tspan></text>
      </g>
     </g>
     <g class="com.sun.star.drawing.CustomShape">
      <g id="id5">
       <path fill="rgb(114,159,207)" stroke="none" d="M 10044,8239 L 14109,8239 14109,10360 10044,10360 10044,8239 10044,8239 Z M 10044,8239 L 10044,8239 Z M 14109,10360 L 14109,10360 Z"/>
       <path fill="none" stroke="rgb(52,101,175)" d="M 10044,8239 L 14109,8239 14109,10360 10044,10360 10044,8239 10044,8239 Z"/>
       <path fill="none" stroke="rgb(52,101,175)" d="M 10044,8239 L 10044,8239 Z"/>
       <path fill="none" stroke="rgb(52,101,175)" d="M 14109,10360 L 14109,10360 Z"/>
       <text class="TextShape"><tspan class="TextParagraph" font-family="Liberation Sans, sans-serif" font-size="353px" font-weight="400"><tspan class="TextPosition" x="10542" y="9024"><tspan fill="rgb(0,0,0)" stroke="none">We know the length</tspan></tspan></tspan><tspan class="TextParagraph" font-family="Liberation Sans, sans-serif" font-size="353px" font-weight="400"><tspan class="TextPosition" x="10760" y="9422"><tspan fill="rgb(0,0,0)" stroke="none">of the request  L.</tspan></tspan></tspan></text>
      </g>
     </g>
     <g class="com.sun.star.drawing.CustomShape">
      <g id="id6">
       <path fill="rgb(114,159,207)" stroke="none" d="M 3771,2493 L 8111,2493 8111,4055 3771,4055 3771,2493 3771,2493 Z M 3771,2493 L 3771,2493 Z M 8111,4055 L 8111,4055 Z"/>
       <path fill="none" stroke="rgb(52,101,175)" d="M 3771,2493 L 8111,2493 8111,4055 3771,4055 3771,2493 3771,2493 Z"/>
       <path fill="none" stroke="rgb(52,101,175)" d="M 3771,2493 L 3771,2493 Z"/>
       <path fill="none" stroke="rgb(52,101,175)" d="M 8111,4055 L 8111,4055 Z"/>
       <text class="TextShape"><tspan class="TextParagraph" font-family="Liberation Sans, sans-serif" font-size="353px" font-weight="400"><tspan class="TextPosition" x="4396" y="2999"><tspan fill="rgb(0,0,0)" stroke="none">Pick a default buffer</tspan></tspan></tspan><tspan class="TextParagraph" font-family="Liberation Sans, sans-serif" font-size="353px" font-weight="400"><tspan class="TextPosition" x="4872" y="3397"><tspan fill="rgb(0,0,0)" stroke="none">Of size D &gt; 4.</tspan></tspan></tspan></text>
      </g>
     </g>
     <g class="com.sun.star.drawing.CustomShape">
      <g id="id7">
       <path fill="rgb(114,159,207)" stroke="none" d="M 9936,17946 L 12095,16485 14255,17946 12095,19407 9936,17946 9936,17946 Z M 9936,16485 L 9936,16485 Z M 14255,19407 L 14255,19407 Z"/>
       <path fill="none" stroke="rgb(52,101,175)" d="M 9936,17946 L 12095,16485 14255,17946 12095,19407 9936,17946 9936,17946 Z"/>
       <path fill="none" stroke="rgb(52,101,175)" d="M 9936,16485 L 9936,16485 Z"/>
       <path fill="none" stroke="rgb(52,101,175)" d="M 14255,19407 L 14255,19407 Z"/>
       <text class="TextShape"><tspan class="TextParagraph" font-family="Liberation Sans, sans-serif" font-size="353px" font-weight="400"><tspan class="TextPosition" x="10945" y="17671"><tspan fill="rgb(0,0,0)" stroke="none">Do we have all</tspan></tspan></tspan><tspan class="TextParagraph" font-family="Liberation Sans, sans-serif" font-size="353px" font-weight="400"><tspan class="TextPosition" x="11439" y="18069"><tspan fill="rgb(0,0,0)" stroke="none">L bytes?</tspan></tspan></tspan></text>
      </g>
     </g>
     <g class="com.sun.star.drawing.ConnectorShape">
      <g id="id8">
       <path fill="none" stroke="rgb(0,0,0)" d="M 5942,4055 L 5935,4537"/>
       <path fill="rgb(0,0,0)" stroke="none" d="M 5928,4967 L 6085,4519 5785,4515 5928,4967 Z"/>
      </g>
     </g>
     <g class="com.sun.star.drawing.ConnectorShape">
      <g id="id9">
       <path fill="none" stroke="rgb(0,0,0)" d="M 5928,6530 L 5892,7159"/>
       <path fill="rgb(0,0,0)" stroke="none" d="M 5868,7588 L 6043,7147 5744,7130 5868,7588 Z"/>
      </g>
     </g>
     <g class="com.sun.star.drawing.ConnectorShape">
      <g id="id10">
       <path fill="none" stroke="rgb(0,0,0)" d="M 3518,9247 L 3016,9247 3016,5749 3315,5749"/>
       <path fill="rgb(0,0,0)" stroke="none" d="M 3745,5749 L 3295,5599 3295,5899 3745,5749 Z"/>
      </g>
     </g>
     <g class="com.sun.star.drawing.ConnectorShape">
      <g id="id11">
       <path fill="none" stroke="rgb(0,0,0)" d="M 12095,19407 L 12065,20247"/>
       <path fill="rgb(0,0,0)" stroke="none" d="M 12049,20677 L 12215,20233 11915,20222 12049,20677 Z"/>
      </g>
     </g>
     <g class="com.sun.star.drawing.TextShape">
      <g id="id12">
       <text class="TextShape"><tspan class="TextParagraph" font-family="Liberation Sans, sans-serif" font-size="353px" font-weight="400"><tspan class="TextPosition" x="2474" y="7106"><tspan fill="rgb(0,0,0)" stroke="none">No</tspan></tspan></tspan></text>
      </g>
     </g>
     <g class="com.sun.star.drawing.CustomShape">
      <g id="id13">
       <path fill="rgb(114,159,207)" stroke="none" d="M 10071,14112 L 14136,14112 14136,15471 10071,15471 10071,14112 10071,14112 Z M 10071,14112 L 10071,14112 Z M 14136,15471 L 14136,15471 Z"/>
       <path fill="none" stroke="rgb(52,101,175)" d="M 10071,14112 L 14136,14112 14136,15471 10071,15471 10071,14112 10071,14112 Z"/>
       <path fill="none" stroke="rgb(52,101,175)" d="M 10071,14112 L 10071,14112 Z"/>
       <path fill="none" stroke="rgb(52,101,175)" d="M 14136,15471 L 14136,15471 Z"/>
       <text class="TextShape"><tspan class="TextParagraph" font-family="Liberation Sans, sans-serif" font-size="353px" font-weight="400"><tspan class="TextPosition" x="10391" y="14715"><tspan fill="rgb(0,0,0)" stroke="none">Keep reading  into the</tspan></tspan></tspan><tspan class="TextParagraph" font-family="Liberation Sans, sans-serif" font-size="353px" font-weight="400"><tspan class="TextPosition" x="11047" y="15113"><tspan fill="rgb(0,0,0)" stroke="none">default buffer.</tspan></tspan></tspan></text>
      </g>
     </g>
     <g class="com.sun.star.drawing.CustomShape">
      <g id="id14">
       <path fill="rgb(114,159,207)" stroke="none" d="M 9762,12393 L 12112,11567 14462,12393 12112,13219 9762,12393 9762,12393 Z M 9762,11567 L 9762,11567 Z M 14462,13219 L 14462,13219 Z"/>
       <path fill="none" stroke="rgb(52,101,175)" d="M 9762,12393 L 12112,11567 14462,12393 12112,13219 9762,12393 9762,12393 Z"/>
       <path fill="none" stroke="rgb(52,101,175)" d="M 9762,11567 L 9762,11567 Z"/>
       <path fill="none" stroke="rgb(52,101,175)" d="M 14462,13219 L 14462,13219 Z"/>
       <text class="TextShape"><tspan class="TextParagraph" font-family="Liberation Sans, sans-serif" font-size="353px" font-weight="400"><tspan class="TextPosition" x="11155" y="12317"><tspan fill="rgb(0,0,0)" stroke="none">Is L &lt;= D - 4</tspan></tspan></tspan></text>
      </g>
     </g>
     <g class="com.sun.star.drawing.ConnectorShape">
      <g id="id15">
       <path fill="none" stroke="rgb(0,0,0)" d="M 12076,10359 L 12100,11138"/>
       <path fill="rgb(0,0,0)" stroke="none" d="M 12113,11568 L 12249,11114 11949,11123 12113,11568 Z"/>
      </g>
     </g>
     <g class="com.sun.star.drawing.LineShape">
      <g id="id16">
       <path fill="none" stroke="rgb(0,0,0)" d="M 8239,9255 L 9768,9255"/>
       <path fill="rgb(0,0,0)" stroke="none" d="M 10198,9255 L 9748,9105 9748,9405 10198,9255 Z"/>
      </g>
     </g>
     <g class="com.sun.star.drawing.TextShape">
      <g id="id17">
       <text class="TextShape"><tspan class="TextParagraph" font-family="Liberation Sans, sans-serif" font-size="353px" font-weight="400"><tspan class="TextPosition" x="8489" y="9042"><tspan fill="rgb(0,0,0)" stroke="none">Yes</tspan></tspan></tspan></text>
      </g>
     </g>
     <g class="com.sun.star.drawing.TextShape">
      <g id="id18">
       <text class="TextShape"><tspan class="TextParagraph" font-family="Liberation Sans, sans-serif" font-size="353px" font-weight="400"><tspan class="TextPosition" x="8581" y="11661"><tspan fill="rgb(0,0,0)" stroke="none">No</tspan></tspan></tspan></text>
      </g>
     </g>
     <g class="com.sun.star.drawing.TextShape">
      <g id="id19">
       <text class="TextShape"><tspan class="TextParagraph" font-family="Liberation Sans, sans-serif" font-size="353px" font-weight="400"><tspan class="TextPosition" x="12353" y="19932"><tspan fill="rgb(0,0,0)" stroke="none">Yes</tspan></tspan></tspan></text>
      </g>
     </g>
     <g class="com.sun.star.drawing.TextShape">
      <g id="id20">
       <text class="TextShape"><tspan class="TextParagraph" font-family="Liberation Sans, sans-serif" font-size="353px" font-weight="400"><tspan class="TextPosition" x="9632" y="16638"><tspan fill="rgb(0,0,0)" stroke="none">No</tspan></tspan></tspan></text>
      </g>
     </g>
     <g class="com.sun.star.drawing.TextShape">
      <g id="id21">
       <text class="TextShape"><tspan class="TextParagraph" font-family="Liberation Sans, sans-serif" font-size="353px" font-weight="400"><tspan class="TextPosition" x="12934" y="13455"><tspan fill="rgb(0,0,0)" stroke="none">Yes</tspan></tspan></tspan></text>
      </g>
     </g>
     <g class="com.sun.star.drawing.ConnectorShape">
      <g id="id22">
       <path fill="none" stroke="rgb(0,0,0)" d="M 12103,15470 L 12098,16056"/>
       <path fill="rgb(0,0,0)" stroke="none" d="M 12095,16486 L 12249,16037 11949,16035 12095,16486 Z"/>
      </g>
     </g>
     <g class="com.sun.star.drawing.ConnectorShape">
      <g id="id23">
       <path fill="none" stroke="rgb(0,0,0)" d="M 12113,13219 L 12108,13682"/>
       <path fill="rgb(0,0,0)" stroke="none" d="M 12103,14112 L 12258,13664 11958,13660 12103,14112 Z"/>
      </g>
     </g>
     <g class="com.sun.star.drawing.CustomShape">
      <g id="id24">
       <path fill="rgb(114,159,207)" stroke="none" d="M 3667,11326 L 7732,11326 7732,13447 3667,13447 3667,11326 3667,11326 Z M 3667,11326 L 3667,11326 Z M 7732,13447 L 7732,13447 Z"/>
       <path fill="none" stroke="rgb(52,101,175)" d="M 3667,11326 L 7732,11326 7732,13447 3667,13447 3667,11326 3667,11326 Z"/>
       <path fill="none" stroke="rgb(52,101,175)" d="M 3667,11326 L 3667,11326 Z"/>
       <path fill="none" stroke="rgb(52,101,175)" d="M 7732,13447 L 7732,13447 Z"/>
       <text class="TextShape"><tspan class="TextParagraph" font-family="Liberation Sans, sans-serif" font-size="353px" font-weight="400"><tspan class="TextPosition" x="3881" y="12310"><tspan fill="rgb(0,0,0)" stroke="none">Allocate a buffer of size</tspan></tspan></tspan><tspan class="TextParagraph" font-family="Liberation Sans, sans-serif" font-size="353px" font-weight="400"><tspan class="TextPosition" x="4819" y="12708"><tspan fill="rgb(0,0,0)" stroke="none">L – (D - 4). </tspan></tspan></tspan></text>
      </g>
     </g>
     <g class="com.sun.star.drawing.CustomShape">
      <g id="id25">
       <path fill="rgb(114,159,207)" stroke="none" d="M 3667,14081 L 7732,14081 7732,15440 3667,15440 3667,14081 3667,14081 Z M 3667,14081 L 3667,14081 Z M 7732,15440 L 7732,15440 Z"/>
       <path fill="none" stroke="rgb(52,101,175)" d="M 3667,14081 L 7732,14081 7732,15440 3667,15440 3667,14081 3667,14081 Z"/>
       <path fill="none" stroke="rgb(52,101,175)" d="M 3667,14081 L 3667,14081 Z"/>
       <path fill="none" stroke="rgb(52,101,175)" d="M 7732,15440 L 7732,15440 Z"/>
       <text class="TextShape"><tspan class="TextParagraph" font-family="Liberation Sans, sans-serif" font-size="353px" font-weight="400"><tspan class="TextPosition" x="4351" y="14684"><tspan fill="rgb(0,0,0)" stroke="none">Do a scatter read</tspan></tspan></tspan><tspan class="TextParagraph" font-family="Liberation Sans, sans-serif" font-size="353px" font-weight="400"><tspan class="TextPosition" x="4124" y="15082"><tspan fill="rgb(0,0,0)" stroke="none">into  the two buffers.</tspan></tspan></tspan></text>
      </g>
     </g>
     <g class="com.sun.star.drawing.CustomShape">
      <g id="id26">
       <path fill="rgb(114,159,207)" stroke="none" d="M 3240,20558 L 8067,20558 8067,22031 3240,22031 3240,20558 3240,20558 Z M 3240,20558 L 3240,20558 Z M 8067,22031 L 8067,22031 Z"/>
       <path fill="none" stroke="rgb(52,101,175)" d="M 3240,20558 L 8067,20558 8067,22031 3240,22031 3240,20558 3240,20558 Z"/>
       <path fill="none" stroke="rgb(52,101,175)" d="M 3240,20558 L 3240,20558 Z"/>
       <path fill="none" stroke="rgb(52,101,175)" d="M 8067,22031 L 8067,22031 Z"/>
       <text class="TextShape"><tspan class="TextParagraph" font-family="Liberation Sans, sans-serif" font-size="353px" font-weight="400"><tspan class="TextPosition" x="3424" y="21019"><tspan fill="rgb(0,0,0)" stroke="none">We have a complete request</tspan></tspan></tspan><tspan class="TextParagraph" font-family="Liberation Sans, sans-serif" font-size="353px" font-weight="400"><tspan class="TextPosition" x="3695" y="21417"><tspan fill="rgb(0,0,0)" stroke="none">composed of two buffers.</tspan></tspan></tspan><tspan class="TextParagraph" font-family="Liberation Sans, sans-serif" font-size="353px" font-weight="400"><tspan class="TextPosition" x="4783" y="21815"><tspan fill="rgb(0,0,0)" stroke="none">Process it!!</tspan></tspan></tspan></text>
      </g>
     </g>
     <g class="com.sun.star.drawing.ConnectorShape">
      <g id="id27">
       <path fill="none" stroke="rgb(0,0,0)" d="M 5653,19207 L 5653,20128"/>
       <path fill="rgb(0,0,0)" stroke="none" d="M 5653,20558 L 5803,20108 5503,20108 5653,20558 Z"/>
      </g>
     </g>
     <g class="com.sun.star.drawing.TextShape">
      <g id="id28">
       <text class="TextShape"><tspan class="TextParagraph" font-family="Liberation Sans, sans-serif" font-size="353px" font-weight="400"><tspan class="TextPosition" x="5949" y="19608"><tspan fill="rgb(0,0,0)" stroke="none">Yes</tspan></tspan></tspan></text>
      </g>
     </g>
     <g class="com.sun.star.drawing.TextShape">
      <g id="id29">
       <text class="TextShape"><tspan class="TextParagraph" font-family="Liberation Sans, sans-serif" font-size="353px" font-weight="400"><tspan class="TextPosition" x="3155" y="16511"><tspan fill="rgb(0,0,0)" stroke="none">No</tspan></tspan></tspan></text>
      </g>
     </g>
     <g class="com.sun.star.drawing.CustomShape">
      <g id="id30">
       <path fill="rgb(114,159,207)" stroke="none" d="M 3494,17746 L 5653,16285 7813,17746 5653,19207 3494,17746 3494,17746 Z M 3494,16285 L 3494,16285 Z M 7813,19207 L 7813,19207 Z"/>
       <path fill="none" stroke="rgb(52,101,175)" d="M 3494,17746 L 5653,16285 7813,17746 5653,19207 3494,17746 3494,17746 Z"/>
       <path fill="none" stroke="rgb(52,101,175)" d="M 3494,16285 L 3494,16285 Z"/>
       <path fill="none" stroke="rgb(52,101,175)" d="M 7813,19207 L 7813,19207 Z"/>
       <text class="TextShape"><tspan class="TextParagraph" font-family="Liberation Sans, sans-serif" font-size="353px" font-weight="400"><tspan class="TextPosition" x="4503" y="17471"><tspan fill="rgb(0,0,0)" stroke="none">Do we have all</tspan></tspan></tspan><tspan class="TextParagraph" font-family="Liberation Sans, sans-serif" font-size="353px" font-weight="400"><tspan class="TextPosition" x="4997" y="17869"><tspan fill="rgb(0,0,0)" stroke="none">L bytes?</tspan></tspan></tspan></text>
      </g>
     </g>
     <g class="com.sun.star.drawing.ConnectorShape">
      <g id="id31">
       <path fill="none" stroke="rgb(0,0,0)" d="M 5699,13446 L 5699,13651"/>
       <path fill="rgb(0,0,0)" stroke="none" d="M 5699,14081 L 5849,13631 5549,13631 5699,14081 Z"/>
      </g>
     </g>
     <g class="com.sun.star.drawing.ConnectorShape">
      <g id="id32">
       <path fill="none" stroke="rgb(0,0,0)" d="M 5699,15439 L 5676,15857"/>
       <path fill="rgb(0,0,0)" stroke="none" d="M 5653,16286 L 5827,15845 5528,15829 5653,16286 Z"/>
      </g>
     </g>
     <g class="com.sun.star.drawing.ConnectorShape">
      <g id="id33">
       <path fill="none" stroke="rgb(0,0,0)" d="M 9763,12394 L 8161,12388"/>
       <path fill="rgb(0,0,0)" stroke="none" d="M 7731,12386 L 8180,12538 8182,12238 7731,12386 Z"/>
      </g>
     </g>
     <g class="com.sun.star.drawing.ConnectorShape">
      <g id="id34">
       <path fill="none" stroke="rgb(0,0,0)" d="M 3494,17747 L 2993,17747 2993,14760 3237,14760"/>
       <path fill="rgb(0,0,0)" stroke="none" d="M 3667,14760 L 3217,14610 3217,14910 3667,14760 Z"/>
      </g>
     </g>
     <g class="com.sun.star.drawing.ConnectorShape">
      <g id="id35">
       <path fill="none" stroke="rgb(0,0,0)" d="M 9936,17947 L 9435,17947 9435,14791 9641,14791"/>
       <path fill="rgb(0,0,0)" stroke="none" d="M 10071,14791 L 9621,14641 9621,14941 10071,14791 Z"/>
      </g>
     </g>
     <g class="com.sun.star.drawing.CustomShape">
      <g id="id36">
       <path fill="rgb(114,159,207)" stroke="none" d="M 9636,20685 L 14463,20685 14463,22158 9636,22158 9636,20685 9636,20685 Z M 9636,20685 L 9636,20685 Z M 14463,22158 L 14463,22158 Z"/>
       <path fill="none" stroke="rgb(52,101,175)" d="M 9636,20685 L 14463,20685 14463,22158 9636,22158 9636,20685 9636,20685 Z"/>
       <path fill="none" stroke="rgb(52,101,175)" d="M 9636,20685 L 9636,20685 Z"/>
       <path fill="none" stroke="rgb(52,101,175)" d="M 14463,22158 L 14463,22158 Z"/>
       <text class="TextShape"><tspan class="TextParagraph" font-family="Liberation Sans, sans-serif" font-size="353px" font-weight="400"><tspan class="TextPosition" x="9820" y="21146"><tspan fill="rgb(0,0,0)" stroke="none">We have a complete request</tspan></tspan></tspan><tspan class="TextParagraph" font-family="Liberation Sans, sans-serif" font-size="353px" font-weight="400"><tspan class="TextPosition" x="10123" y="21544"><tspan fill="rgb(0,0,0)" stroke="none">composed of one buffer..</tspan></tspan></tspan><tspan class="TextParagraph" font-family="Liberation Sans, sans-serif" font-size="353px" font-weight="400"><tspan class="TextPosition" x="11179" y="21942"><tspan fill="rgb(0,0,0)" stroke="none">Process it!!</tspan></tspan></tspan></text>
      </g>
     </g>
    </g>
   </g>
  </g>
 </g>
</svg>