<?xml version="1.0" encoding="UTF-8"?>
<!DOCTYPE svg PUBLIC "-//W3C//DTD SVG 1.1//EN" "http://www.w3.org/Graphics/SVG/1.1/DTD/svg11.dtd">
<svg version="1.2" width="215.9mm" height="279.4mm" viewBox="0 0 21590 27940" preserveAspectRatio="xMidYMid" fill-rule="evenodd" clip-path="url(#presentation_clip_path)" stroke-width="28.222" stroke-linejoin="round" xmlns="http://www.w3.org/2000/svg" xmlns:ooo="http://xml.openoffice.org/svg/export" xmlns:xlink="http://www.w3.org/1999/xlink" xml:space="preserve">
 <defs class="ClipPathGroup">
  <clipPath id="presentation_clip_path" clipPathUnits="userSpaceOnUse">
   <rect x="0" y="0" width="21590" height="27940"/>
  </clipPath>
 </defs>
 <defs class="TextShapeIndex">
  <g ooo:slide="id1" ooo:id-list="id3 id4 id5 id6 id7 id8 id9 id10 id11 id12 id13 id14 id15 id16 id17 id18 id19 id20 id21 id22 id23 id24 id25 id26 id27 id28 id29 id30 id31 id32 id33 id34 id35 id36 id37 id38 id39"/>
 </defs>
 <defs class="EmbeddedBulletChars">
  <g id="bullet-char-template(57356)" transform="scale(0.00048828125,-0.00048828125)">
   <path d="M 580,1141 L 1163,571 580,0 -4,571 580,1141 Z"/>
  </g>
  <g id="bullet-char-template(57354)" transform="scale(0.00048828125,-0.00048828125)">
   <path d="M 8,1128 L 1137,1128 1137,0 8,0 8,1128 Z"/>
  </g>
  <g id="bullet-char-template(10146)" transform="scale(0.00048828125,-0.00048828125)">
   <path d="M 174,0 L 602,739 174,1481 1456,739 174,0 Z M 1358,739 L 309,1346 659,739 1358,739 Z"/>
  </g>
  <g id="bullet-char-template(10132)" transform="scale(0.00048828125,-0.00048828125)">
   <path d="M 2015,739 L 1276,0 717,0 1260,543 174,543 174,936 1260,936 717,1481 1274,1481 2015,739 Z"/>
  </g>
  <g id="bullet-char-template(10007)" transform="scale(0.00048828125,-0.00048828125)">
   <path d="M 0,-2 C -7,14 -16,27 -25,37 L 356,567 C 262,823 215,952 215,954 215,979 228,992 255,992 264,992 276,990 289,987 310,991 331,999 354,1012 L 381,999 492,748 772,1049 836,1024 860,1049 C 881,1039 901,1025 922,1006 886,937 835,863 770,784 769,783 710,716 594,584 L 774,223 C 774,196 753,168 711,139 L 727,119 C 717,90 699,76 672,76 641,76 570,178 457,381 L 164,-76 C 142,-110 111,-127 72,-127 30,-127 9,-110 8,-76 1,-67 -2,-52 -2,-32 -2,-23 -1,-13 0,-2 Z"/>
  </g>
  <g id="bullet-char-template(10004)" transform="scale(0.00048828125,-0.00048828125)">
   <path d="M 285,-33 C 182,-33 111,30 74,156 52,228 41,333 41,471 41,549 55,616 82,672 116,743 169,778 240,778 293,778 328,747 346,684 L 369,508 C 377,444 397,411 428,410 L 1163,1116 C 1174,1127 1196,1133 1229,1133 1271,1133 1292,1118 1292,1087 L 1292,965 C 1292,929 1282,901 1262,881 L 442,47 C 390,-6 338,-33 285,-33 Z"/>
  </g>
  <g id="bullet-char-template(9679)" transform="scale(0.00048828125,-0.00048828125)">
   <path d="M 813,0 C 632,0 489,54 383,161 276,268 223,411 223,592 223,773 276,916 383,1023 489,1130 632,1184 813,1184 992,1184 1136,1130 1245,1023 1353,916 1407,772 1407,592 1407,412 1353,268 1245,161 1136,54 992,0 813,0 Z"/>
  </g>
  <g id="bullet-char-template(8226)" transform="scale(0.00048828125,-0.00048828125)">
   <path d="M 346,457 C 273,457 209,483 155,535 101,586 74,649 74,723 74,796 101,859 155,911 209,963 273,989 346,989 419,989 480,963 531,910 582,859 608,796 608,723 608,648 583,586 532,535 482,483 420,457 346,457 Z"/>
  </g>
  <g id="bullet-char-template(8211)" transform="scale(0.00048828125,-0.00048828125)">
   <path d="M -4,459 L 1135,459 1135,606 -4,606 -4,459 Z"/>
  </g>
 </defs>
 <defs class="TextEmbeddedBitmaps"/>
 <g>
  <g id="id2" class="Master_Slide">
   <g id="bg-id2" class="Background"/>
   <g id="bo-id2" class="BackgroundObjects"/>
  </g>
 </g>
 <g class="SlideGroup">
  <g>
   <g id="id1" class="Slide" clip-path="url(#presentation_clip_path)">
    <g class="Page">
     <g class="com.sun.star.drawing.CustomShape">
      <g id="id3">
       <path fill="rgb(114,159,207)" stroke="none" d="M 3792,19467 L 2458,19467 2458,6513 5125,6513 5125,19467 3792,19467 Z"/>
       <path fill="none" stroke="rgb(52,101,175)" d="M 3792,19467 L 2458,19467 2458,6513 5125,6513 5125,19467 3792,19467 Z"/>
      </g>
     </g>
     <g class="com.sun.star.drawing.LineShape">
      <g id="id4">
       <path fill="none" stroke="rgb(0,0,0)" d="M 2459,8926 L 5126,8926"/>
      </g>
     </g>
     <g class="com.sun.star.drawing.LineShape">
      <g id="id5">
       <path fill="none" stroke="rgb(0,0,0)" d="M 2460,11526 L 5127,11526"/>
      </g>
     </g>
     <g class="com.sun.star.drawing.LineShape">
      <g id="id6">
       <path fill="none" stroke="rgb(0,0,0)" d="M 2460,14526 L 5127,14526"/>
      </g>
     </g>
     <g class="com.sun.star.drawing.LineShape">
      <g id="id7">
       <path fill="none" stroke="rgb(0,0,0)" d="M 2460,17126 L 5127,17126"/>
      </g>
     </g>
     <g class="com.sun.star.drawing.LineShape">
      <g id="id8">
       <path fill="none" stroke="rgb(0,0,0)" d="M 5153,7656 L 7644,7656"/>
       <path fill="rgb(0,0,0)" stroke="none" d="M 8074,7656 L 7624,7506 7624,7806 8074,7656 Z"/>
      </g>
     </g>
     <g class="com.sun.star.drawing.LineShape">
      <g id="id9">
       <path fill="none" stroke="rgb(0,0,0)" d="M 5154,10156 L 7645,10156"/>
       <path fill="rgb(0,0,0)" stroke="none" d="M 8075,10156 L 7625,10006 7625,10306 8075,10156 Z"/>
      </g>
     </g>
     <g class="com.sun.star.drawing.LineShape">
      <g id="id10">
       <path fill="none" stroke="rgb(0,0,0)" d="M 5154,13056 L 7645,13056"/>
       <path fill="rgb(0,0,0)" stroke="none" d="M 8075,13056 L 7625,12906 7625,13206 8075,13056 Z"/>
      </g>
     </g>
     <g class="com.sun.star.drawing.LineShape">
      <g id="id11">
       <path fill="none" stroke="rgb(0,0,0)" d="M 5155,15656 L 7646,15656"/>
       <path fill="rgb(0,0,0)" stroke="none" d="M 8076,15656 L 7626,15506 7626,15806 8076,15656 Z"/>
      </g>
     </g>
     <g class="com.sun.star.drawing.LineShape">
      <g id="id12">
       <path fill="none" stroke="rgb(0,0,0)" d="M 5156,18156 L 7647,18156"/>
       <path fill="rgb(0,0,0)" stroke="none" d="M 8077,18156 L 7627,18006 7627,18306 8077,18156 Z"/>
      </g>
     </g>
     <g class="com.sun.star.drawing.TextShape">
      <g id="id13">
       <text class="TextShape"><tspan class="TextParagraph" font-family="Liberation Sans, sans-serif" font-size="635px" font-weight="400"><tspan class="TextPosition" x="1185" y="5844"><tspan fill="rgb(0,0,0)" stroke="none">Array of buckets</tspan></tspan></tspan></text>
      </g>
     </g>
     <g class="com.sun.star.drawing.TextShape">
      <g id="id14">
       <text class="TextShape"><tspan class="TextParagraph" font-family="Liberation Sans, sans-serif" font-size="635px" font-weight="400"><tspan class="TextPosition" x="3598" y="8103"><tspan fill="rgb(0,0,0)" stroke="none">0</tspan></tspan></tspan></text>
      </g>
     </g>
     <g class="com.sun.star.drawing.TextShape">
      <g id="id15">
       <text class="TextShape"><tspan class="TextParagraph" font-family="Liberation Sans, sans-serif" font-size="635px" font-weight="400"><tspan class="TextPosition" x="3009" y="18500"><tspan fill="rgb(0,0,0)" stroke="none">255</tspan></tspan></tspan></text>
      </g>
     </g>
     <g class="com.sun.star.drawing.TextShape">
      <g id="id16">
       <text class="TextShape"><tspan class="TextParagraph" font-family="Liberation Sans, sans-serif" font-size="776px" font-weight="400"><tspan class="TextPosition" x="2812" y="2871"><tspan fill="rgb(0,0,0)" stroke="none">Hashed wheel timer – vector of inlined timers</tspan></tspan></tspan></text>
      </g>
     </g>
     <g class="com.sun.star.drawing.TextShape">
      <g id="id17">
       <text class="TextShape"><tspan class="TextParagraph" font-family="Liberation Sans, sans-serif" font-size="635px" font-weight="400"><tspan class="TextPosition" x="3599" y="10104"><tspan fill="rgb(0,0,0)" stroke="none">1</tspan></tspan></tspan></text>
      </g>
     </g>
     <g class="com.sun.star.drawing.TextShape">
      <g id="id18">
       <text class="TextShape"><tspan class="TextParagraph" font-family="Liberation Sans, sans-serif" font-size="635px" font-weight="400"><tspan class="TextPosition" x="3600" y="13205"><tspan fill="rgb(0,0,0)" stroke="none">2</tspan></tspan></tspan></text>
      </g>
     </g>
     <g class="com.sun.star.drawing.TextShape">
      <g id="id19">
       <text class="TextShape"><tspan class="TextParagraph" font-family="Liberation Sans, sans-serif" font-size="635px" font-weight="400"><tspan class="TextPosition" x="3301" y="16006"><tspan fill="rgb(0,0,0)" stroke="none">…</tspan></tspan></tspan></text>
      </g>
     </g>
     <g class="com.sun.star.drawing.LineShape">
      <g id="id20">
       <path fill="none" stroke="rgb(0,0,0)" d="M 10587,9509 L 5048,9509"/>
       <path fill="rgb(0,0,0)" stroke="none" d="M 4618,9509 L 5068,9659 5068,9359 4618,9509 Z"/>
      </g>
     </g>
     <g class="com.sun.star.drawing.TextShape">
      <g id="id21">
       <text class="TextShape"><tspan class="TextParagraph" font-family="Liberation Sans, sans-serif" font-size="635px" font-weight="400"><tspan class="TextPosition" x="10648" y="9702"><tspan fill="rgb(0,0,0)" stroke="none">Current time pointer</tspan></tspan></tspan></text>
      </g>
     </g>
     <g class="com.sun.star.drawing.CustomShape">
      <g id="id22">
       <path fill="rgb(114,159,207)" stroke="none" d="M 12361,13572 L 9884,13572 9884,12429 14837,12429 14837,13572 12361,13572 Z"/>
       <path fill="none" stroke="rgb(52,101,175)" d="M 12361,13572 L 9884,13572 9884,12429 14837,12429 14837,13572 12361,13572 Z"/>
       <text class="TextShape"><tspan class="TextParagraph" font-family="Liberation Sans, sans-serif" font-size="635px" font-weight="400"><tspan class="TextPosition" x="11298" y="13221"><tspan fill="rgb(0,0,0)" stroke="none">Timer 1</tspan></tspan></tspan></text>
      </g>
     </g>
     <g class="com.sun.star.drawing.CustomShape">
      <g id="id23">
       <path fill="rgb(114,159,207)" stroke="none" d="M 17362,13573 L 14885,13573 14885,12430 19838,12430 19838,13573 17362,13573 Z"/>
       <path fill="none" stroke="rgb(52,101,175)" d="M 17362,13573 L 14885,13573 14885,12430 19838,12430 19838,13573 17362,13573 Z"/>
       <text class="TextShape"><tspan class="TextParagraph" font-family="Liberation Sans, sans-serif" font-size="635px" font-weight="400"><tspan class="TextPosition" x="16299" y="13222"><tspan fill="rgb(0,0,0)" stroke="none">Timer 2</tspan></tspan></tspan></text>
      </g>
     </g>
     <g class="com.sun.star.drawing.CustomShape">
      <g id="id24">
       <path fill="rgb(114,159,207)" stroke="none" d="M 9165,13573 L 8186,13573 8186,12430 10144,12430 10144,13573 9165,13573 Z"/>
       <path fill="none" stroke="rgb(52,101,175)" d="M 9165,13573 L 8186,13573 8186,12430 10144,12430 10144,13573 9165,13573 Z"/>
       <text class="TextShape"><tspan class="TextParagraph" font-family="Liberation Sans, sans-serif" font-size="423px" font-weight="400"><tspan class="TextPosition" x="8587" y="13148"><tspan fill="rgb(0,0,0)" stroke="none">vector</tspan></tspan></tspan></text>
      </g>
     </g>
     <g class="com.sun.star.drawing.CustomShape">
      <g id="id25">
       <path fill="rgb(114,159,207)" stroke="none" d="M 14525,26939 L 9127,26939 9127,19160 19922,19160 19922,26939 14525,26939 Z"/>
       <path fill="none" stroke="rgb(52,101,175)" d="M 14525,26939 L 9127,26939 9127,19160 19922,19160 19922,26939 14525,26939 Z"/>
      </g>
     </g>
     <g class="com.sun.star.drawing.LineShape">
      <g id="id26">
       <path fill="none" stroke="rgb(0,0,0)" d="M 14462,19161 L 14589,26940"/>
      </g>
     </g>
     <g class="com.sun.star.drawing.LineShape">
      <g id="id27">
       <path fill="none" stroke="rgb(0,0,0)" d="M 9128,20323 L 19923,20323"/>
      </g>
     </g>
     <g class="com.sun.star.drawing.TextShape">
      <g id="id28">
       <text class="TextShape"><tspan class="TextParagraph" font-family="Liberation Sans, sans-serif" font-size="635px" font-weight="400"><tspan class="TextPosition" x="9251" y="19916"><tspan fill="rgb(0,0,0)" stroke="none">Timer Id</tspan></tspan></tspan></text>
      </g>
     </g>
     <g class="com.sun.star.drawing.TextShape">
      <g id="id29">
       <text class="TextShape"><tspan class="TextParagraph" font-family="Liberation Sans, sans-serif" font-size="635px" font-weight="400"><tspan class="TextPosition" x="14412" y="19989"><tspan fill="rgb(0,0,0)" stroke="none">Timer holder</tspan></tspan></tspan></text>
      </g>
     </g>
     <g class="com.sun.star.drawing.LineShape">
      <g id="id30">
       <path fill="none" stroke="rgb(0,0,0)" d="M 9129,22423 L 19924,22423"/>
      </g>
     </g>
     <g class="com.sun.star.drawing.LineShape">
      <g id="id31">
       <path fill="none" stroke="rgb(0,0,0)" d="M 9129,20323 L 19924,20323"/>
      </g>
     </g>
     <g class="com.sun.star.drawing.LineShape">
      <g id="id32">
       <path fill="none" stroke="rgb(0,0,0)" d="M 9129,25323 L 19924,25323"/>
      </g>
     </g>
     <g class="com.sun.star.drawing.TextShape">
      <g id="id33">
       <text class="TextShape"><tspan class="TextParagraph" font-family="Liberation Sans, sans-serif" font-size="635px" font-weight="400"><tspan class="TextPosition" x="10851" y="21316"><tspan fill="rgb(0,0,0)" stroke="none">1</tspan></tspan></tspan></text>
      </g>
     </g>
     <g class="com.sun.star.drawing.TextShape">
      <g id="id34">
       <text class="TextShape"><tspan class="TextParagraph" font-family="Liberation Sans, sans-serif" font-size="635px" font-weight="400"><tspan class="TextPosition" x="11129" y="23980"><tspan fill="rgb(0,0,0)" stroke="none">2</tspan></tspan></tspan></text>
      </g>
     </g>
     <g class="com.sun.star.drawing.LineShape">
      <g id="id35">
       <path fill="none" stroke="rgb(0,0,0)" d="M 18907,21193 L 14923,13950"/>
       <path fill="rgb(0,0,0)" stroke="none" d="M 14716,13573 L 14801,14040 15064,13895 14716,13573 Z"/>
      </g>
     </g>
     <g class="com.sun.star.drawing.LineShape">
      <g id="id36">
       <path fill="none" stroke="rgb(0,0,0)" d="M 14208,13573 L 18314,20819"/>
       <path fill="rgb(0,0,0)" stroke="none" d="M 18526,21193 L 18435,20728 18174,20875 18526,21193 Z"/>
      </g>
     </g>
     <g class="com.sun.star.drawing.LineShape">
      <g id="id37">
       <path fill="none" stroke="rgb(0,0,0)" d="M 19288,13573 L 19653,23430"/>
       <path fill="rgb(0,0,0)" stroke="none" d="M 19669,23860 L 19802,23405 19502,23416 19669,23860 Z"/>
      </g>
     </g>
     <g class="com.sun.star.drawing.LineShape">
      <g id="id38">
       <path fill="none" stroke="rgb(0,0,0)" d="M 19415,23606 L 19050,14003"/>
       <path fill="rgb(0,0,0)" stroke="none" d="M 19034,13573 L 18901,14028 19201,14017 19034,13573 Z"/>
      </g>
     </g>
     <g class="com.sun.star.drawing.TextShape">
      <g id="id39">
       <text class="TextShape"><tspan class="TextParagraph" font-family="Liberation Sans, sans-serif" font-size="635px" font-weight="400"><tspan class="TextPosition" x="1631" y="21263"><tspan fill="rgb(0,0,0)" stroke="none">Table of timer holders </tspan></tspan><tspan class="TextPosition" x="1631" y="21974"><tspan fill="rgb(0,0,0)" stroke="none">(this could be any other </tspan></tspan><tspan class="TextPosition" x="1631" y="22685"><tspan fill="rgb(0,0,0)" stroke="none">data structure containing </tspan></tspan><tspan class="TextPosition" x="1631" y="23396"><tspan fill="rgb(0,0,0)" stroke="none">pointers to timers)</tspan></tspan></tspan></text>
      </g>
     </g>
    </g>
   </g>
  </g>
 </g>
</svg>