<?xml version="1.0" encoding="UTF-8"?>
<!DOCTYPE svg PUBLIC "-//W3C//DTD SVG 1.1//EN" "http://www.w3.org/Graphics/SVG/1.1/DTD/svg11.dtd">
<svg version="1.2" width="215.9mm" height="279.4mm" viewBox="0 0 21590 27940" preserveAspectRatio="xMidYMid" fill-rule="evenodd" clip-path="url(#presentation_clip_path)" stroke-width="28.222" stroke-linejoin="round" xmlns="http://www.w3.org/2000/svg" xmlns:ooo="http://xml.openoffice.org/svg/export" xmlns:xlink="http://www.w3.org/1999/xlink" xml:space="preserve">
 <defs class="ClipPathGroup">
  <clipPath id="presentation_clip_path" clipPathUnits="userSpaceOnUse">
   <rect x="0" y="0" width="21590" height="27940"/>
  </clipPath>
 </defs>
 <defs class="TextShapeIndex">
  <g ooo:slide="id1" ooo:id-list="id3 id4 id5 id6 id7 id8 id9 id10 id11 id12 id13 id14 id15 id16 id17 id18 id19"/>
 </defs>
 <defs class="EmbeddedBulletChars">
  <g id="bullet-char-template(57356)" transform="scale(0.00048828125,-0.00048828125)">
   <path d="M 580,1141 L 1163,571 580,0 -4,571 580,1141 Z"/>
  </g>
  <g id="bullet-char-template(57354)" transform="scale(0.00048828125,-0.00048828125)">
   <path d="M 8,1128 L 1137,1128 1137,0 8,0 8,1128 Z"/>
  </g>
  <g id="bullet-char-template(10146)" transform="scale(0.00048828125,-0.00048828125)">
   <path d="M 174,0 L 602,739 174,1481 1456,739 174,0 Z M 1358,739 L 309,1346 659,739 1358,739 Z"/>
  </g>
  <g id="bullet-char-template(10132)" transform="scale(0.00048828125,-0.00048828125)">
   <path d="M 2015,739 L 1276,0 717,0 1260,543 174,543 174,936 1260,936 717,1481 1274,1481 2015,739 Z"/>
  </g>
  <g id="bullet-char-template(10007)" transform="scale(0.00048828125,-0.00048828125)">
   <path d="M 0,-2 C -7,14 -16,27 -25,37 L 356,567 C 262,823 215,952 215,954 215,979 228,992 255,992 264,992 276,990 289,987 310,991 331,999 354,1012 L 381,999 492,748 772,1049 836,1024 860,1049 C 881,1039 901,1025 922,1006 886,937 835,863 770,784 769,783 710,716 594,584 L 774,223 C 774,196 753,168 711,139 L 727,119 C 717,90 699,76 672,76 641,76 570,178 457,381 L 164,-76 C 142,-110 111,-127 72,-127 30,-127 9,-110 8,-76 1,-67 -2,-52 -2,-32 -2,-23 -1,-13 0,-2 Z"/>
  </g>
  <g id="bullet-char-template(10004)" transform="scale(0.00048828125,-0.00048828125)">
   <path d="M 285,-33 C 182,-33 111,30 74,156 52,228 41,333 41,471 41,549 55,616 82,672 116,743 169,778 240,778 293,778 328,747 346,684 L 369,508 C 377,444 397,411 428,410 L 1163,1116 C 1174,1127 1196,1133 1229,1133 1271,1133 1292,1118 1292,1087 L 1292,965 C 1292,929 1282,901 1262,881 L 442,47 C 390,-6 338,-33 285,-33 Z"/>
  </g>
  <g id="bullet-char-template(9679)" transform="scale(0.00048828125,-0.00048828125)">
   <path d="M 813,0 C 632,0 489,54 383,161 276,268 223,411 223,592 223,773 276,916 383,1023 489,1130 632,1184 813,1184 992,1184 1136,1130 1245,1023 1353,916 1407,772 1407,592 1407,412 1353,268 1245,161 1136,54 992,0 813,0 Z"/>
  </g>
  <g id="bullet-char-template(8226)" transform="scale(0.00048828125,-0.00048828125)">
   <path d="M 346,457 C 273,457 209,483 155,535 101,586 74,649 74,723 74,796 101,859 155,911 209,963 273,989 346,989 419,989 480,963 531,910 582,859 608,796 608,723 608,648 583,586 532,535 482,483 420,457 346,457 Z"/>
  </g>
  <g id="bullet-char-template(8211)" transform="scale(0.00048828125,-0.00048828125)">
   <path d="M -4,459 L 1135,459 1135,606 -4,606 -4,459 Z"/>
  </g>
 </defs>
 <defs class="TextEmbeddedBitmaps"/>
 <g>
  <g id="id2" class="Master_Slide">
   <g id="bg-id2" class="Background"/>
   <g id="bo-id2" class="BackgroundObjects"/>
  </g>
 </g>
 <g class="SlideGroup">
  <g>
   <g id="id1" class="Slide" clip-path="url(#presentation_clip_path)">
    <g class="Page">
     <g class="com.sun.star.drawing.CustomShape">
      <g id="id3">
       <path fill="rgb(114,159,207)" stroke="none" d="M 3745,4911 L 8112,4911 8112,6731 3745,6731 3745,4911 3745,4911 Z M 3745,4911 L 3745,4911 Z M 8112,6731 L 8112,6731 Z"/>
       <path fill="none" stroke="rgb(52,101,175)" d="M 3745,4911 L 8112,4911 8112,6731 3745,6731 3745,4911 3745,4911 Z"/>
       <path fill="none" stroke="rgb(52,101,175)" d="M 3745,4911 L 3745,4911 Z"/>
       <path fill="none" stroke="rgb(52,101,175)" d="M 8112,6731 L 8112,6731 Z"/>
       <text class="TextShape"><tspan class="TextParagraph" font-family="Liberation Sans, sans-serif" font-size="353px" font-weight="400"><tspan class="TextPosition" x="3917" y="5944"><tspan fill="rgb(0,0,0)" stroke="none">Read data into the  buffer.</tspan></tspan></tspan></text>
      </g>
     </g>
     <g class="com.sun.star.drawing.CustomShape">
      <g id="id4">
       <path fill="rgb(114,159,207)" stroke="none" d="M 3517,10496 L 5867,7844 8217,10496 5867,13148 3517,10496 3517,10496 Z M 3517,7844 L 3517,7844 Z M 8217,13148 L 8217,13148 Z"/>
       <path fill="none" stroke="rgb(52,101,175)" d="M 3517,10496 L 5867,7844 8217,10496 5867,13148 3517,10496 3517,10496 Z"/>
       <path fill="none" stroke="rgb(52,101,175)" d="M 3517,7844 L 3517,7844 Z"/>
       <path fill="none" stroke="rgb(52,101,175)" d="M 8217,13148 L 8217,13148 Z"/>
       <text class="TextShape"><tspan class="TextParagraph" font-family="Liberation Sans, sans-serif" font-size="353px" font-weight="400"><tspan class="TextPosition" x="4226" y="10420"><tspan fill="rgb(0,0,0)" stroke="none">Do we have 4 bytes?</tspan></tspan></tspan></text>
      </g>
     </g>
     <g class="com.sun.star.drawing.CustomShape">
      <g id="id5">
       <path fill="rgb(114,159,207)" stroke="none" d="M 3772,14545 L 7837,14545 7837,16666 3772,16666 3772,14545 3772,14545 Z M 3772,14545 L 3772,14545 Z M 7837,16666 L 7837,16666 Z"/>
       <path fill="none" stroke="rgb(52,101,175)" d="M 3772,14545 L 7837,14545 7837,16666 3772,16666 3772,14545 3772,14545 Z"/>
       <path fill="none" stroke="rgb(52,101,175)" d="M 3772,14545 L 3772,14545 Z"/>
       <path fill="none" stroke="rgb(52,101,175)" d="M 7837,16666 L 7837,16666 Z"/>
       <text class="TextShape"><tspan class="TextParagraph" font-family="Liberation Sans, sans-serif" font-size="353px" font-weight="400"><tspan class="TextPosition" x="4075" y="15330"><tspan fill="rgb(0,0,0)" stroke="none">We know the length L.</tspan></tspan></tspan><tspan class="TextParagraph" font-family="Liberation Sans, sans-serif" font-size="353px" font-weight="400"><tspan class="TextPosition" x="4471" y="15728"><tspan fill="rgb(0,0,0)" stroke="none">Continue reading</tspan></tspan></tspan><tspan class="TextParagraph" font-family="Liberation Sans, sans-serif" font-size="353px" font-weight="400"><tspan class="TextPosition" x="4699" y="16126"><tspan fill="rgb(0,0,0)" stroke="none">into the buffer.</tspan></tspan></tspan></text>
      </g>
     </g>
     <g class="com.sun.star.drawing.CustomShape">
      <g id="id6">
       <path fill="rgb(114,159,207)" stroke="none" d="M 3771,2033 L 8111,2033 8111,3851 3771,3851 3771,2033 3771,2033 Z M 3771,2033 L 3771,2033 Z M 8111,3851 L 8111,3851 Z"/>
       <path fill="none" stroke="rgb(52,101,175)" d="M 3771,2033 L 8111,2033 8111,3851 3771,3851 3771,2033 3771,2033 Z"/>
       <path fill="none" stroke="rgb(52,101,175)" d="M 3771,2033 L 3771,2033 Z"/>
       <path fill="none" stroke="rgb(52,101,175)" d="M 8111,3851 L 8111,3851 Z"/>
       <text class="TextShape"><tspan class="TextParagraph" font-family="Liberation Sans, sans-serif" font-size="353px" font-weight="400"><tspan class="TextPosition" x="3860" y="2866"><tspan fill="rgb(0,0,0)" stroke="none">Pick a large enough buffer.</tspan></tspan></tspan></text>
      </g>
     </g>
     <g class="com.sun.star.drawing.CustomShape">
      <g id="id7">
       <path fill="rgb(114,159,207)" stroke="none" d="M 3717,20440 L 5813,17789 7909,20440 5813,23091 3717,20440 3717,20440 Z M 3717,17789 L 3717,17789 Z M 7909,23091 L 7909,23091 Z"/>
       <path fill="none" stroke="rgb(52,101,175)" d="M 3717,20440 L 5813,17789 7909,20440 5813,23091 3717,20440 3717,20440 Z"/>
       <path fill="none" stroke="rgb(52,101,175)" d="M 3717,17789 L 3717,17789 Z"/>
       <path fill="none" stroke="rgb(52,101,175)" d="M 7909,23091 L 7909,23091 Z"/>
       <text class="TextShape"><tspan class="TextParagraph" font-family="Liberation Sans, sans-serif" font-size="353px" font-weight="400"><tspan class="TextPosition" x="4181" y="20364"><tspan fill="rgb(0,0,0)" stroke="none">Do we have L bytes?</tspan></tspan></tspan></text>
      </g>
     </g>
     <g class="com.sun.star.drawing.CustomShape">
      <g id="id8">
       <path fill="rgb(114,159,207)" stroke="none" d="M 3383,24455 L 8210,24455 8210,26273 3383,26273 3383,24455 3383,24455 Z M 3383,24455 L 3383,24455 Z M 8210,26273 L 8210,26273 Z"/>
       <path fill="none" stroke="rgb(52,101,175)" d="M 3383,24455 L 8210,24455 8210,26273 3383,26273 3383,24455 3383,24455 Z"/>
       <path fill="none" stroke="rgb(52,101,175)" d="M 3383,24455 L 3383,24455 Z"/>
       <path fill="none" stroke="rgb(52,101,175)" d="M 8210,26273 L 8210,26273 Z"/>
       <text class="TextShape"><tspan class="TextParagraph" font-family="Liberation Sans, sans-serif" font-size="353px" font-weight="400"><tspan class="TextPosition" x="3518" y="25288"><tspan fill="rgb(0,0,0)" stroke="none">We have a complete request.</tspan></tspan></tspan><tspan class="TextParagraph" font-family="Liberation Sans, sans-serif" font-size="353px" font-weight="400"><tspan class="TextPosition" x="4974" y="25686"><tspan fill="rgb(0,0,0)" stroke="none">Process it!</tspan></tspan></tspan></text>
      </g>
     </g>
     <g class="com.sun.star.drawing.ConnectorShape">
      <g id="id9">
       <path fill="none" stroke="rgb(0,0,0)" d="M 5942,3851 L 5934,4482"/>
       <path fill="rgb(0,0,0)" stroke="none" d="M 5928,4912 L 6084,4464 5784,4460 5928,4912 Z"/>
      </g>
     </g>
     <g class="com.sun.star.drawing.ConnectorShape">
      <g id="id10">
       <path fill="none" stroke="rgb(0,0,0)" d="M 5928,6731 L 5891,7416"/>
       <path fill="rgb(0,0,0)" stroke="none" d="M 5868,7845 L 6042,7404 5742,7388 5868,7845 Z"/>
      </g>
     </g>
     <g class="com.sun.star.drawing.ConnectorShape">
      <g id="id11">
       <path fill="none" stroke="rgb(0,0,0)" d="M 5868,13148 L 5824,14115"/>
       <path fill="rgb(0,0,0)" stroke="none" d="M 5804,14545 L 5974,14102 5675,14089 5804,14545 Z"/>
      </g>
     </g>
     <g class="com.sun.star.drawing.ConnectorShape">
      <g id="id12">
       <path fill="none" stroke="rgb(0,0,0)" d="M 3518,10497 L 3016,10497 3016,5822 3315,5822"/>
       <path fill="rgb(0,0,0)" stroke="none" d="M 3745,5822 L 3295,5672 3295,5972 3745,5822 Z"/>
      </g>
     </g>
     <g class="com.sun.star.drawing.ConnectorShape">
      <g id="id13">
       <path fill="none" stroke="rgb(0,0,0)" d="M 3718,20441 L 3216,20441 3216,15605 3342,15605"/>
       <path fill="rgb(0,0,0)" stroke="none" d="M 3772,15605 L 3322,15455 3322,15755 3772,15605 Z"/>
      </g>
     </g>
     <g class="com.sun.star.drawing.ConnectorShape">
      <g id="id14">
       <path fill="none" stroke="rgb(0,0,0)" d="M 5804,16665 L 5810,17360"/>
       <path fill="rgb(0,0,0)" stroke="none" d="M 5814,17790 L 5960,17339 5660,17341 5814,17790 Z"/>
      </g>
     </g>
     <g class="com.sun.star.drawing.ConnectorShape">
      <g id="id15">
       <path fill="none" stroke="rgb(0,0,0)" d="M 5814,23091 L 5802,24026"/>
       <path fill="rgb(0,0,0)" stroke="none" d="M 5796,24456 L 5952,24008 5652,24004 5796,24456 Z"/>
      </g>
     </g>
     <g class="com.sun.star.drawing.TextShape">
      <g id="id16">
       <text class="TextShape"><tspan class="TextParagraph" font-family="Liberation Sans, sans-serif" font-size="353px" font-weight="400"><tspan class="TextPosition" x="2474" y="7328"><tspan fill="rgb(0,0,0)" stroke="none">No</tspan></tspan></tspan></text>
      </g>
     </g>
     <g class="com.sun.star.drawing.TextShape">
      <g id="id17">
       <text class="TextShape"><tspan class="TextParagraph" font-family="Liberation Sans, sans-serif" font-size="353px" font-weight="400"><tspan class="TextPosition" x="2571" y="18090"><tspan fill="rgb(0,0,0)" stroke="none">No</tspan></tspan></tspan></text>
      </g>
     </g>
     <g class="com.sun.star.drawing.TextShape">
      <g id="id18">
       <text class="TextShape"><tspan class="TextParagraph" font-family="Liberation Sans, sans-serif" font-size="353px" font-weight="400"><tspan class="TextPosition" x="6381" y="13696"><tspan fill="rgb(0,0,0)" stroke="none">Yes</tspan></tspan></tspan></text>
      </g>
     </g>
     <g class="com.sun.star.drawing.TextShape">
      <g id="id19">
       <text class="TextShape"><tspan class="TextParagraph" font-family="Liberation Sans, sans-serif" font-size="353px" font-weight="400"><tspan class="TextPosition" x="6254" y="23538"><tspan fill="rgb(0,0,0)" stroke="none">Yes</tspan></tspan></tspan></text>
      </g>
     </g>
    </g>
   </g>
  </g>
 </g>
</svg>